<?xml version="1.0" standalone="no"?>
<!DOCTYPE svg PUBLIC "-//W3C//DTD SVG 20010904//EN"
 "http://www.w3.org/TR/2001/REC-SVG-20010904/DTD/svg10.dtd">
<svg version="1.0" xmlns="http://www.w3.org/2000/svg"
 width="920.000000pt" height="700.000000pt" viewBox="0 0 920.000000 700.000000"
 preserveAspectRatio="xMidYMid meet">

<g transform="translate(0.000000,700.000000) scale(0.100000,-0.100000)"
fill="#000000" stroke="none">
<path d="M6941 6094 c-169 -59 -437 -319 -707 -684 -134 -182 -437 -668 -601
-965 -34 -60 -75 -135 -92 -165 -17 -30 -47 -86 -67 -123 -22 -42 -40 -67 -48
-64 -388 149 -1054 154 -1610 10 l-139 -36 -18 24 c-19 25 -374 590 -447 712
-345 572 -761 1050 -1024 1178 -93 45 -163 56 -244 39 -204 -42 -459 -285
-556 -530 -49 -125 -63 -210 -62 -390 1 -286 35 -401 284 -980 303 -704 333
-794 345 -1045 16 -337 77 -527 212 -664 l65 -66 2 -163 c1 -124 -2 -162 -11
-162 -7 0 -13 3 -13 8 0 11 -146 123 -215 165 -151 92 -258 112 -435 83 -159
-27 -237 -61 -320 -137 -129 -120 -155 -393 -47 -499 69 -68 94 -75 272 -72
172 2 973 28 1145 37 58 3 231 7 385 11 241 5 281 8 290 21 174 278 353 433
645 558 47 21 121 48 165 62 162 52 246 107 290 193 41 81 46 140 39 515 -8
433 6 724 42 885 32 141 106 185 154 91 57 -112 71 -257 80 -841 9 -535 11
-562 66 -656 49 -84 123 -128 295 -174 361 -98 682 -323 826 -578 l31 -53 824
1 c840 1 1054 7 1143 34 109 34 146 76 165 189 22 129 -4 210 -97 308 -60 63
-131 109 -238 154 -63 27 -81 30 -175 30 -129 0 -206 -22 -365 -102 -104 -53
-250 -144 -268 -167 -5 -6 -6 3 -2 19 18 81 23 140 21 250 l-2 120 28 24 c91
76 170 223 211 391 48 197 66 301 97 545 24 192 56 335 99 445 16 41 52 136
81 210 28 74 60 156 71 182 99 241 185 511 215 673 58 317 -84 793 -300 1007
-131 128 -344 191 -485 142z m186 -389 c58 -9 120 -53 179 -127 65 -81 86
-117 122 -208 46 -115 58 -207 44 -331 -24 -219 -96 -444 -262 -824 -164 -375
-192 -467 -192 -630 0 -55 10 -167 22 -248 22 -142 22 -152 7 -229 -25 -125
-147 -368 -190 -376 -24 -5 -43 21 -126 178 -110 206 -126 233 -198 345 -154
236 -287 381 -449 487 -106 70 -140 103 -177 172 -33 61 -32 285 2 441 80 376
269 696 607 1025 248 241 426 351 544 335 14 -2 44 -7 67 -10z m-4955 -153
c182 -88 355 -219 530 -398 284 -292 458 -644 509 -1028 12 -95 6 -191 -16
-241 -7 -16 -68 -84 -135 -150 -286 -281 -477 -552 -615 -875 -29 -69 -62
-135 -73 -147 -49 -55 -141 -9 -205 100 -54 92 -69 162 -65 292 1 61 3 198 3
305 0 219 -8 260 -84 423 -21 45 -56 118 -76 162 -118 254 -252 578 -311 755
-43 132 -48 155 -52 260 -3 86 0 131 13 179 44 172 188 365 302 407 22 8 65
13 103 11 55 -2 82 -10 172 -55z m4117 -2751 c95 -35 108 -43 184 -118 191
-190 195 -512 9 -702 -100 -101 -218 -151 -357 -151 -132 0 -234 43 -334 141
-174 170 -199 445 -59 652 121 179 352 253 557 178z m-3158 -47 c174 -52 307
-191 353 -370 78 -303 -144 -604 -444 -604 -208 0 -393 147 -465 368 -13 41
-16 79 -13 165 3 105 6 117 40 190 60 125 181 227 306 256 61 15 165 12 223
-5z m4540 -541 c75 -35 155 -105 216 -187 35 -48 43 -66 43 -102 0 -58 -41
-106 -116 -133 -88 -33 -98 -24 -174 162 -25 61 -37 78 -57 83 -48 12 -66 -33
-52 -135 5 -31 5 -66 2 -79 -11 -47 -110 -69 -152 -34 -29 22 -44 93 -36 164
6 51 5 57 -14 63 -44 14 -58 -2 -92 -103 -26 -77 -42 -106 -75 -139 -41 -42
-42 -43 -111 -43 -57 0 -76 4 -98 22 -26 20 -27 24 -23 92 6 91 41 160 119
238 108 109 277 169 460 164 83 -3 105 -7 160 -33z m-5731 -100 c101 -49 203
-150 253 -252 36 -72 48 -139 29 -167 -15 -22 -52 -34 -110 -34 -84 0 -103 18
-141 131 -34 101 -64 139 -112 139 -27 0 -29 -3 -29 -37 0 -21 5 -67 10 -102
12 -83 -5 -130 -47 -133 -69 -3 -113 14 -135 55 -6 12 -12 59 -12 105 -2 90
-8 102 -58 102 -34 0 -52 -27 -66 -95 -16 -75 -27 -100 -67 -144 -65 -71 -132
-64 -174 17 -30 59 -35 104 -17 164 31 106 130 195 278 249 163 60 278 61 398
2z"/>
<path d="M6047 2720 c-95 -24 -172 -89 -227 -191 -34 -63 -35 -66 -35 -184 0
-115 1 -123 32 -186 117 -238 423 -276 589 -73 101 125 113 331 27 468 -39 62
-111 123 -173 147 -63 24 -158 33 -213 19z m189 -99 c102 -46 153 -125 161
-249 10 -143 -29 -206 -141 -231 -51 -11 -60 -11 -74 3 -14 14 -15 23 -3 78 8
35 15 72 16 84 5 37 -23 82 -77 123 -94 71 -118 93 -118 107 0 23 60 84 94 93
50 15 98 12 142 -8z"/>
<path d="M2910 2625 c-157 -50 -272 -251 -241 -420 25 -136 108 -244 219 -285
80 -31 205 -25 278 13 74 38 130 96 167 174 29 62 32 76 32 168 0 88 -3 107
-27 157 -33 71 -112 152 -176 180 -60 27 -188 34 -252 13z m139 -51 c44 -28
81 -67 81 -85 0 -10 -17 -28 -37 -40 -120 -72 -135 -102 -108 -227 20 -96 20
-148 -1 -156 -54 -21 -146 12 -187 66 -62 80 -76 211 -33 296 31 61 91 126
141 152 46 23 101 21 144 -6z"/>
<path d="M4420 2295 c-149 -41 -274 -137 -328 -252 -38 -83 -44 -232 -12 -316
49 -131 159 -194 288 -166 61 12 92 43 99 97 8 59 -3 103 -35 142 -25 29 -35
34 -78 34 -47 1 -49 0 -52 -28 -3 -23 5 -37 47 -75 52 -48 60 -68 39 -89 -21
-21 -64 -13 -110 22 -54 41 -78 88 -78 149 0 38 5 49 30 70 16 14 52 30 79 36
135 29 205 -37 237 -220 24 -137 46 -134 94 12 28 87 40 111 76 145 42 42 114
74 165 74 46 0 78 -21 99 -65 38 -78 20 -169 -40 -200 -29 -15 -95 -20 -124
-9 -36 14 -2 80 55 109 30 16 37 43 17 63 -20 20 -53 14 -97 -18 -135 -98 -93
-240 71 -240 117 0 223 83 259 202 30 96 23 174 -22 258 -58 109 -158 181
-344 246 -99 34 -248 43 -335 19z m315 -71 c78 -22 121 -68 104 -111 -12 -32
-121 -80 -207 -92 -194 -26 -375 68 -289 150 71 69 254 94 392 53z"/>
</g>
</svg>
